<?xml version="1.0" encoding="iso-8859-1"?>
<!-- Generator: Adobe Illustrator 19.0.0, SVG Export Plug-In . SVG Version: 6.00 Build 0)  -->
<svg version="1.1" id="Layer_1" xmlns="http://www.w3.org/2000/svg" xmlns:xlink="http://www.w3.org/1999/xlink" x="0px" y="0px"
	 viewBox="0 0 512 512" style="enable-background:new 0 0 512 512;" xml:space="preserve">
<g>
	<g>
		<g>
			<path style="fill:#231F20;" d="M467.333,50.482H44.667C20.037,50.482,0,70.519,0,95.148v321.703
				c0,24.629,20.037,44.667,44.667,44.667h422.667c24.629,0,44.667-20.037,44.667-44.667V95.148
				C512,70.519,491.964,50.482,467.333,50.482z M473.714,416.852c0,3.518-2.863,6.381-6.381,6.381H44.667
				c-3.518,0-6.381-2.862-6.381-6.381V95.148c0-3.518,2.863-6.381,6.381-6.381h422.667c3.518,0,6.381,2.862,6.381,6.381V416.852z"/>
			<circle style="fill:#231F20;" cx="96.595" cy="147.08" r="26.403"/>
			<circle style="fill:#231F20;" cx="202.863" cy="147.08" r="26.403"/>
			<circle style="fill:#231F20;" cx="309.132" cy="147.08" r="26.403"/>
			<circle style="fill:#231F20;" cx="96.595" cy="219.696" r="26.403"/>
			<circle style="fill:#231F20;" cx="309.132" cy="219.696" r="26.403"/>
			<circle style="fill:#231F20;" cx="415.4" cy="219.696" r="26.403"/>
			<circle style="fill:#231F20;" cx="415.4" cy="292.311" r="26.403"/>
			<circle style="fill:#231F20;" cx="96.595" cy="364.926" r="26.403"/>
			<circle style="fill:#231F20;" cx="309.132" cy="364.926" r="26.403"/>
			<circle style="fill:#231F20;" cx="415.4" cy="364.926" r="26.403"/>
		</g>
	</g>
</g>
<g>
</g>
<g>
</g>
<g>
</g>
<g>
</g>
<g>
</g>
<g>
</g>
<g>
</g>
<g>
</g>
<g>
</g>
<g>
</g>
<g>
</g>
<g>
</g>
<g>
</g>
<g>
</g>
<g>
</g>
</svg>
