<?xml version="1.0" standalone="no"?>
<!DOCTYPE svg PUBLIC "-//W3C//DTD SVG 20010904//EN"
 "http://www.w3.org/TR/2001/REC-SVG-20010904/DTD/svg10.dtd">
<svg version="1.0" xmlns="http://www.w3.org/2000/svg"
 width="1280.000000pt" height="1091.000000pt" viewBox="0 0 1280.000000 1091.000000"
 preserveAspectRatio="xMidYMid meet">
<metadata>
Created by potrace 1.15, written by Peter Selinger 2001-2017
</metadata>
<g transform="translate(0.000000,1091.000000) scale(0.100000,-0.100000)"
fill="#000000" stroke="none">
<path d="M6249 10900 c-42 -5 -130 -21 -195 -36 l-119 -26 -130 17 c-185 25
-579 17 -745 -14 -244 -46 -413 -97 -438 -132 -15 -22 -16 -22 -117 1 -68 16
-477 17 -585 1 -368 -52 -681 -157 -960 -322 -100 -59 -95 -54 -71 -78 30 -30
30 -127 1 -159 -27 -29 -41 -28 -75 8 -22 23 -32 27 -42 19 -23 -20 -43 -110
-43 -196 l0 -83 -42 0 c-74 0 -227 27 -254 45 l-26 17 32 27 c38 32 38 64 -1
93 -23 18 -32 18 -90 8 -190 -33 -370 -126 -598 -310 -155 -125 -343 -310
-336 -329 4 -9 9 -31 12 -48 5 -30 3 -34 -30 -48 -20 -8 -51 -15 -68 -15 -28
0 -56 -24 -229 -194 -116 -114 -232 -218 -281 -252 -113 -78 -251 -219 -328
-334 -81 -121 -170 -300 -226 -452 -24 -65 -60 -145 -80 -178 -58 -96 -132
-259 -156 -345 -31 -108 -32 -265 -2 -345 l20 -55 85 3 84 4 -14 -95 c-16
-103 -13 -132 17 -168 l19 -24 30 28 c36 35 70 33 91 -5 13 -23 14 -34 3 -75
-24 -89 -74 -115 -130 -68 -28 24 -30 24 -46 6 -21 -23 -20 -35 5 -116 15 -51
18 -70 9 -75 -7 -4 -52 -13 -101 -20 -105 -14 -103 -9 -58 -137 69 -196 184
-385 342 -565 51 -58 60 -74 73 -135 60 -293 213 -532 473 -741 281 -226 697
-399 1171 -487 l95 -18 37 -76 c25 -52 60 -102 111 -156 72 -78 74 -82 81
-143 4 -35 12 -76 18 -90 6 -15 11 -74 12 -132 1 -98 4 -111 33 -170 18 -36
53 -90 78 -120 52 -63 158 -157 195 -172 14 -6 41 -18 60 -26 46 -20 80 -2 99
54 12 34 12 44 0 69 -20 43 -58 53 -110 30 -41 -19 -42 -19 -55 0 -23 31 -36
94 -38 175 l-1 75 90 -3 c170 -5 345 -36 345 -59 0 -3 -11 -16 -25 -29 -28
-26 -33 -69 -11 -100 20 -26 110 -27 150 0 26 16 28 22 23 65 -2 25 -8 53 -11
62 -4 9 1 25 11 38 24 30 137 43 288 33 l110 -7 3 -83 c2 -65 -1 -92 -17 -128
l-21 -46 -29 21 c-38 27 -85 27 -112 0 -18 -18 -21 -30 -17 -77 4 -45 10 -60
33 -80 24 -20 36 -23 71 -18 37 5 45 2 59 -16 21 -31 19 -76 -7 -139 -12 -30
-23 -56 -24 -57 -5 -7 -202 -32 -255 -32 -40 0 -63 5 -79 18 l-22 18 22 41
c17 33 19 46 10 62 -16 31 -65 52 -123 53 -41 0 -55 -4 -69 -22 -25 -31 -23
-47 13 -83 28 -28 29 -32 15 -43 -15 -10 -12 -15 21 -42 78 -61 262 -175 385
-238 171 -87 335 -150 498 -191 196 -49 296 -63 470 -64 85 0 223 -4 305 -9
215 -13 522 18 875 86 96 19 178 34 182 34 4 0 27 -42 52 -92 93 -194 192
-335 340 -486 56 -57 134 -129 175 -160 45 -35 87 -77 109 -112 78 -122 361
-616 449 -785 52 -99 100 -186 107 -193 9 -9 51 -14 142 -15 110 -2 134 1 157
16 22 14 26 23 21 40 -22 62 17 117 82 117 69 0 87 -29 65 -105 -11 -40 1 -69
36 -83 36 -15 187 -32 286 -32 l77 0 0 -40 c0 -43 -20 -103 -39 -114 -5 -4
-28 5 -50 19 -51 35 -100 32 -119 -7 -16 -34 -6 -99 22 -140 33 -49 49 -55 92
-35 32 16 39 16 51 4 41 -41 29 -325 -16 -395 -6 -10 -15 -6 -39 17 -31 31
-47 36 -77 25 -44 -17 -60 -125 -26 -180 29 -48 108 -57 265 -28 107 20 147
49 165 118 26 105 4 203 -131 581 -34 94 -67 175 -73 180 -12 10 -40 153 -32
161 1 2 61 -10 132 -27 72 -16 140 -32 153 -34 20 -5 22 -2 22 33 0 21 5 43
12 50 20 20 92 15 122 -9 27 -21 35 -66 16 -85 -8 -8 50 -13 187 -17 109 -4
265 -14 346 -24 129 -15 165 -15 275 -4 221 22 596 104 827 182 390 131 721
389 855 664 21 44 44 107 50 140 10 47 21 70 56 108 99 110 143 288 110 444
-10 43 -20 86 -22 96 -5 16 6 17 125 17 429 0 772 134 1037 406 227 233 384
562 468 984 39 194 56 364 63 617 6 251 10 235 -47 247 -14 3 -34 12 -45 20
-17 13 -18 18 -7 35 18 30 15 85 -6 104 -33 30 -79 41 -112 27 -45 -19 -57
-84 -22 -123 8 -9 13 -19 11 -21 -27 -23 -70 -30 -223 -34 -162 -4 -169 -4
-163 14 3 11 18 54 34 96 26 73 27 80 13 105 -14 25 -22 28 -77 31 -55 3 -65
6 -88 33 -27 33 -35 105 -13 127 19 19 73 14 93 -8 45 -50 69 -4 63 118 l-4
90 128 12 c140 14 202 10 226 -14 13 -13 13 -17 -1 -40 -24 -36 -21 -73 9
-103 21 -21 32 -24 61 -20 20 4 44 14 54 23 21 19 25 65 8 96 -10 18 -8 25 11
40 12 10 31 18 42 18 19 0 20 5 13 73 -10 116 -53 363 -85 489 -61 244 -164
469 -261 573 -19 20 -43 74 -74 165 -117 342 -303 623 -486 731 l-68 40 -6 67
c-18 207 -58 359 -132 506 -139 279 -341 492 -660 700 -95 61 -101 67 -112
111 -14 56 -35 55 -39 -2 -2 -27 2 -44 13 -53 22 -18 19 -26 -16 -40 -31 -13
-264 -9 -351 6 l-38 7 0 61 c0 69 14 129 34 145 10 8 22 4 51 -19 46 -36 68
-38 100 -5 33 32 36 114 5 145 -24 24 -76 26 -107 5 -16 -11 -23 -12 -31 -2
-18 23 -24 59 -17 113 l6 54 40 0 c21 0 39 3 39 8 0 4 -37 56 -82 116 -171
229 -411 428 -720 599 -77 43 -88 45 -88 15 0 -13 -16 -74 -35 -137 -36 -118
-42 -168 -25 -202 14 -25 32 -24 59 5 31 33 69 41 92 20 40 -36 13 -151 -44
-184 -23 -13 -30 -12 -61 3 -36 16 -36 16 -53 -9 -27 -42 -43 -123 -43 -219 1
-90 23 -185 46 -192 6 -2 28 10 49 27 68 54 115 30 122 -63 8 -109 -51 -157
-124 -101 -27 21 -40 25 -52 17 -19 -12 -26 -70 -13 -116 l10 -34 -137 -6
c-192 -7 -241 -30 -206 -96 34 -66 8 -110 -69 -118 -38 -5 -48 -2 -71 21 -31
31 -27 59 11 91 13 12 24 26 24 33 0 25 -71 43 -190 49 l-118 6 -6 56 c-4 31
-16 72 -27 90 -19 32 -22 33 -62 26 -67 -13 -90 -9 -114 20 -38 44 -27 107 22
119 14 4 41 0 61 -9 21 -8 38 -14 39 -13 15 18 35 73 35 95 0 15 -12 71 -25
122 -30 113 -31 161 -7 191 15 19 22 21 40 11 62 -33 112 12 112 102 0 84 -65
123 -125 75 -27 -21 -28 -21 -41 -3 -23 31 -16 84 27 211 39 111 41 123 28
150 -17 35 -40 41 -84 20 -18 -9 -41 -13 -49 -10 -45 17 -62 128 -26 164 25
25 46 25 88 0 42 -26 55 -17 71 45 19 77 18 80 -51 94 -35 7 -128 38 -208 70
-335 135 -625 191 -983 191 l-157 0 -78 38 c-131 66 -264 110 -457 153 -83 18
-138 22 -320 25 -121 1 -254 -1 -296 -6z m-2965 -841 c32 -26 33 -40 1 -77
-33 -39 -32 -48 8 -68 25 -14 68 -18 197 -22 106 -3 168 -9 172 -16 11 -17 9
-95 -2 -117 -10 -18 -13 -18 -41 -3 -60 30 -116 -3 -126 -74 -5 -34 -1 -45 21
-67 23 -23 33 -26 79 -23 l51 3 25 -45 c23 -40 26 -56 26 -150 0 -139 -34
-245 -68 -211 -6 6 -30 11 -53 11 -34 0 -47 -5 -63 -26 -12 -15 -21 -41 -21
-59 0 -40 34 -85 64 -85 12 0 31 7 43 15 18 13 22 12 36 -3 24 -26 37 -69 37
-121 l0 -48 -141 -7 c-152 -7 -221 -19 -241 -43 -10 -12 -9 -17 5 -24 25 -14
21 -62 -7 -88 -33 -31 -99 -45 -134 -29 -35 17 -42 66 -12 93 26 24 26 51 -2
66 -25 14 -184 39 -245 39 l-43 0 0 43 c0 23 -9 61 -20 85 l-19 43 -75 -7
c-72 -6 -74 -6 -91 19 -25 39 -17 98 17 117 25 13 32 13 80 -4 l52 -18 18 22
c28 34 22 91 -22 208 -47 124 -57 171 -41 201 15 27 25 27 65 -4 59 -45 111
-25 122 47 8 46 -18 105 -51 118 -30 12 -69 4 -86 -16 -6 -8 -15 -14 -20 -14
-11 0 -39 96 -39 137 l0 33 153 0 c151 0 206 8 241 33 17 13 17 15 -3 48 -26
42 -26 50 0 83 17 22 28 26 73 26 39 0 61 -6 80 -21z m2273 -75 c50 -8 103
-19 117 -25 23 -11 24 -13 11 -33 -8 -11 -15 -35 -15 -53 0 -42 44 -68 103
-60 73 10 121 72 86 113 -9 11 -5 17 24 29 57 23 278 47 457 48 141 1 170 -1
198 -17 27 -14 33 -22 27 -39 -21 -71 -18 -95 13 -127 39 -38 83 -40 117 -5
29 28 31 45 9 86 -14 29 -14 32 3 44 36 26 72 27 255 3 85 -10 87 -12 98 -42
18 -52 24 -140 10 -165 l-12 -23 -19 31 c-34 57 -98 50 -125 -14 -26 -63 -12
-148 26 -160 10 -3 37 -1 61 4 49 11 74 2 84 -30 7 -20 5 -33 -16 -110 l-9
-36 -43 8 c-23 5 -94 11 -157 15 -94 5 -119 3 -135 -9 -19 -15 -19 -16 -2 -51
23 -50 21 -73 -8 -92 -33 -22 -126 -15 -155 11 -26 23 -26 61 0 75 28 15 25
26 -11 39 -43 15 -127 14 -294 -4 -77 -8 -193 -18 -257 -22 -100 -5 -121 -4
-143 11 l-26 17 31 25 c59 50 28 104 -65 112 -121 10 -171 -61 -98 -140 25
-26 25 -26 5 -37 -26 -14 -153 -13 -262 2 l-85 12 -12 45 c-18 70 -16 124 6
151 18 22 22 23 53 11 69 -24 97 -10 117 62 21 80 -11 132 -76 123 -88 -13
-85 -14 -107 23 -15 26 -21 57 -24 126 l-4 93 78 -6 c44 -2 120 -11 171 -19z
m1958 -448 c44 -19 54 -53 30 -106 -9 -21 -14 -44 -10 -50 18 -29 82 -42 230
-48 93 -3 153 -9 157 -16 19 -29 1 -156 -22 -156 -4 0 -15 9 -24 19 -27 29
-73 37 -97 15 -37 -34 -15 -137 36 -164 21 -11 31 -11 67 3 39 16 43 16 61 -1
16 -14 18 -26 14 -72 -7 -68 -22 -80 -101 -80 -134 -1 -316 -37 -316 -63 0 -2
11 -18 25 -37 33 -44 32 -63 -6 -94 -59 -50 -169 -27 -169 34 0 11 7 37 15 57
15 35 14 38 -5 57 -18 18 -33 21 -118 21 -53 0 -139 -4 -189 -9 l-93 -9 0 49
c1 63 15 123 33 141 13 13 20 12 60 -6 93 -43 122 -21 115 85 -3 49 -9 69 -28
89 -33 35 -72 33 -105 -7 -21 -25 -28 -29 -36 -17 -23 37 9 227 37 222 6 -1
66 -7 135 -14 131 -13 163 -10 198 18 21 17 21 19 6 50 -26 52 -3 102 48 103
10 0 33 -6 52 -14z m-5937 -573 c34 -25 40 -63 12 -88 -49 -44 -3 -70 110 -60
41 3 98 8 126 11 l51 6 7 -49 c10 -64 33 -146 49 -166 11 -16 15 -15 56 5 39
19 46 20 69 7 32 -18 45 -62 31 -112 -20 -74 -71 -98 -117 -54 l-24 22 -19
-24 c-23 -28 -24 -58 -4 -131 8 -30 15 -59 15 -64 0 -9 -8 -8 -209 19 -98 13
-129 14 -152 4 -35 -14 -36 -19 -4 -49 39 -37 30 -70 -25 -97 -108 -55 -211 7
-135 82 l24 25 -25 17 c-21 13 -43 15 -137 10 -62 -4 -145 -13 -185 -20 -40
-7 -75 -10 -77 -6 -9 14 22 146 41 180 19 32 24 34 77 37 47 2 60 7 77 29 20
25 27 78 12 99 -23 35 -87 39 -124 7 -14 -13 -18 -9 -37 41 -11 31 -24 74 -27
95 l-6 38 163 6 c168 6 226 16 254 44 15 14 14 18 -9 42 -33 35 -35 83 -3 106
29 22 109 15 145 -12z m2772 -104 c46 -5 86 -12 88 -14 2 -2 8 -38 13 -79 4
-42 17 -97 28 -122 l21 -46 30 32 c23 24 35 30 52 25 54 -16 80 -87 54 -148
-12 -29 -20 -37 -41 -37 -15 0 -35 4 -45 10 -28 15 -47 3 -69 -43 -29 -61 -42
-129 -42 -228 0 -87 18 -159 41 -159 6 0 28 9 50 20 46 24 79 25 106 6 15 -11
19 -26 19 -69 0 -89 -50 -121 -125 -79 -30 17 -31 17 -50 -8 -19 -25 -50 -138
-50 -183 l0 -25 -125 5 c-105 5 -128 3 -149 -11 -23 -14 -25 -21 -20 -59 6
-40 4 -46 -26 -70 -24 -20 -42 -27 -75 -27 -82 0 -100 57 -40 128 l36 41 -23
12 c-29 16 -131 13 -238 -6 -129 -23 -123 -25 -148 53 -23 69 -27 99 -16 126
9 22 27 20 70 -9 20 -14 45 -25 55 -25 62 0 90 153 37 209 -24 27 -71 27 -108
1 l-29 -21 -12 22 c-20 38 -12 94 30 208 47 126 49 143 22 170 -19 19 -22 19
-60 4 -37 -14 -42 -14 -65 1 -55 35 -80 144 -41 172 24 18 61 10 92 -18 l21
-20 18 27 c21 32 43 132 44 193 l0 42 68 0 c111 -1 262 -28 262 -47 0 -3 -11
-18 -25 -35 -62 -73 -3 -137 101 -108 85 24 114 78 77 141 -16 28 -16 29 2 44
24 17 72 19 185 4z m627 -1020 c57 -28 65 -57 28 -105 -62 -81 22 -92 313 -44
231 39 369 48 396 27 18 -13 18 -15 3 -38 -41 -58 -5 -126 72 -136 80 -11 116
50 75 128 -36 70 12 89 221 89 227 0 419 -23 473 -57 21 -13 21 -15 7 -36 -23
-33 -18 -65 14 -98 35 -34 78 -38 112 -10 21 17 24 28 24 92 0 71 1 74 28 87
15 7 77 16 137 19 90 5 110 3 110 -8 0 -95 43 -279 65 -279 4 0 20 14 35 30
54 58 119 23 128 -70 8 -87 -34 -120 -115 -89 -39 15 -63 -16 -63 -81 l0 -47
-143 -5 c-199 -7 -237 -29 -187 -110 25 -42 26 -84 1 -97 -62 -34 -160 -16
-182 33 -10 21 -8 32 11 68 l22 42 -22 18 c-34 27 -109 23 -360 -22 -123 -22
-243 -40 -266 -40 -57 0 -76 19 -62 63 21 66 21 94 -1 116 -52 52 -161 7 -161
-68 0 -20 5 -42 11 -48 16 -16 -69 -40 -173 -48 -128 -10 -125 -8 -133 -62 -8
-59 -43 -143 -59 -143 -6 0 -20 7 -30 15 -26 20 -81 19 -100 -1 -23 -22 -20
-92 4 -132 27 -44 63 -57 103 -37 16 8 34 15 39 15 12 0 44 -75 52 -121 l6
-36 -127 -17 c-210 -27 -237 -28 -266 -17 -25 10 -27 14 -21 46 9 50 -2 83
-36 100 -48 25 -119 16 -142 -19 -18 -26 -7 -76 22 -110 l31 -35 -23 -13 c-15
-8 -72 -14 -158 -16 l-136 -4 -12 88 c-12 81 -27 129 -50 163 -8 11 -15 9 -40
-9 -23 -17 -34 -20 -49 -11 -29 15 -46 64 -40 117 9 83 66 111 108 53 l22 -31
13 23 c20 36 16 113 -11 229 -29 124 -30 139 -10 167 15 21 17 21 56 7 54 -19
65 -18 89 6 41 41 15 147 -41 170 -25 11 -36 10 -70 -5 -38 -18 -40 -18 -54 1
-15 20 -35 120 -35 173 0 33 1 33 38 27 66 -10 308 -19 335 -12 14 3 33 13 41
22 14 14 14 18 1 44 -18 35 -19 82 -3 98 19 19 87 14 135 -9z m5976 -558 c33
-13 42 -43 23 -80 -9 -16 -13 -36 -10 -44 11 -31 102 -53 257 -63 59 -4 114
-12 122 -18 21 -15 31 -108 15 -146 l-12 -30 -28 20 c-77 55 -150 -5 -121
-101 20 -66 69 -86 122 -48 25 17 32 19 45 8 20 -16 14 -87 -10 -124 -16 -24
-20 -25 -129 -25 -135 0 -235 -14 -255 -34 -13 -13 -12 -18 7 -42 28 -36 27
-50 -8 -85 -23 -22 -39 -29 -69 -29 -54 0 -66 17 -58 84 l6 53 -40 18 c-35 16
-57 17 -165 11 -68 -3 -130 -9 -138 -12 -10 -3 -21 11 -35 48 -30 77 -34 97
-28 124 8 30 34 31 78 4 50 -30 84 -26 108 13 32 52 24 154 -14 179 -24 16
-67 8 -91 -18 l-24 -26 -20 33 c-19 31 -37 98 -43 159 -2 20 1 24 17 22 287
-37 420 -29 373 25 -36 41 -28 100 16 121 27 14 78 15 109 3z m-7263 -191 c0
-69 -5 -112 -16 -141 -18 -43 -18 -43 -81 -18 -68 27 -125 -25 -108 -97 13
-52 51 -66 100 -40 34 19 35 19 56 0 18 -16 20 -27 16 -70 -3 -27 -12 -66 -20
-86 l-15 -35 -78 13 c-44 7 -115 13 -160 13 -114 1 -130 -19 -99 -124 15 -49
-76 -106 -133 -84 -48 18 -55 55 -21 120 11 23 18 47 15 55 -13 34 -76 46
-228 46 l-146 0 -4 33 c-4 36 7 91 21 100 5 3 23 -3 40 -12 23 -14 35 -15 48
-7 48 30 59 129 18 169 -25 26 -54 31 -85 15 -15 -8 -21 -4 -36 28 -15 33 -16
46 -6 116 7 44 16 84 21 89 11 11 240 -8 309 -25 54 -13 60 -24 32 -53 -30
-32 -29 -74 1 -98 41 -33 163 -6 189 43 7 14 6 30 -6 60 -15 36 -15 43 -2 56
22 22 91 32 241 33 l137 1 0 -100z m450 -370 c25 -25 25 -53 3 -91 -16 -27
-16 -30 -1 -45 21 -21 124 -41 253 -49 156 -10 149 -6 142 -74 -7 -63 -24
-111 -40 -111 -5 0 -22 11 -39 25 -56 47 -123 26 -129 -40 -5 -70 1 -97 30
-126 33 -33 50 -31 93 9 23 21 30 23 43 12 17 -14 40 -89 51 -162 7 -56 20
-53 -138 -33 -203 25 -288 22 -288 -11 0 -8 11 -32 25 -52 30 -43 31 -63 8
-84 -38 -33 -124 -28 -165 10 -27 23 -23 78 7 104 33 29 32 36 -12 55 -27 11
-84 18 -193 22 l-155 6 -7 50 c-8 60 8 102 37 97 87 -15 83 -16 104 19 64 104
-29 208 -118 133 l-31 -25 -17 35 c-16 34 -16 40 1 111 10 41 22 78 27 81 6 3
74 -2 153 -12 129 -16 147 -16 182 -3 41 16 43 23 29 84 -11 48 24 85 81 85
31 0 50 -6 64 -20z m6000 -5 c27 -24 25 -41 -7 -88 -27 -39 -27 -39 -8 -54 20
-15 99 -14 290 3 80 7 80 8 105 -92 23 -89 -5 -135 -56 -95 -59 46 -123 9
-131 -76 -5 -42 -2 -54 16 -72 25 -25 72 -27 106 -5 13 9 29 13 35 9 19 -11
39 -61 46 -112 l6 -50 -133 -7 c-150 -7 -221 -19 -256 -41 -20 -13 -23 -24
-23 -75 0 -47 -4 -64 -20 -80 -43 -43 -130 -9 -130 49 0 14 9 39 19 55 40 61
-3 83 -184 92 l-122 7 -7 -65 c-7 -75 -29 -155 -49 -182 -13 -18 -15 -18 -38
-3 -36 26 -74 21 -99 -10 -19 -24 -21 -38 -18 -95 6 -107 47 -135 112 -78 34
30 35 30 45 11 15 -26 14 -40 -6 -155 l-17 -98 -91 6 c-111 8 -225 31 -242 49
-11 11 -10 18 7 40 28 35 23 77 -10 94 -57 29 -166 8 -190 -36 -16 -30 -12
-41 21 -72 l31 -29 -38 -16 c-25 -11 -80 -18 -154 -22 l-115 -5 -13 82 c-14
90 -44 171 -64 171 -7 0 -19 -9 -26 -20 -8 -13 -23 -20 -42 -20 -38 0 -61 34
-68 98 -3 38 0 50 17 66 20 18 63 19 103 2 25 -11 48 41 48 108 0 53 -18 154
-29 168 -7 8 -218 -16 -283 -32 -26 -7 -54 -20 -62 -29 -15 -16 -14 -20 9 -41
54 -50 20 -96 -66 -88 -67 7 -99 30 -99 71 0 18 5 38 11 44 28 28 -83 56 -286
74 -71 6 -132 13 -134 15 -2 2 1 28 8 57 13 61 44 102 70 92 9 -4 33 -9 53
-12 31 -5 41 -1 62 22 30 32 43 87 30 124 -8 21 -17 27 -50 29 -32 2 -48 -3
-72 -22 -16 -15 -33 -26 -37 -26 -33 0 -44 94 -22 180 l12 45 80 12 c114 17
266 16 290 -1 18 -13 18 -15 -5 -60 -23 -43 -24 -48 -10 -74 32 -56 139 -32
179 40 14 24 14 28 -4 48 -20 22 -20 22 0 37 25 19 122 13 360 -22 208 -30
304 -32 335 -7 l22 18 -31 35 c-62 67 -22 129 74 114 79 -11 116 -62 80 -109
-25 -33 -18 -56 23 -73 81 -34 588 -26 677 11 40 17 44 39 15 76 -27 35 -26
85 3 105 29 22 119 16 147 -10z m-5815 -1230 c150 -22 148 -21 141 -53 -26
-116 -27 -131 -12 -166 17 -41 30 -44 93 -20 39 15 44 15 68 0 31 -20 33 -67
6 -113 -24 -38 -49 -47 -98 -34 -71 20 -97 -36 -97 -209 0 -118 21 -215 49
-226 7 -3 26 9 44 26 33 33 57 34 93 3 38 -34 48 -132 17 -169 -15 -18 -57
-18 -102 1 -44 18 -42 18 -61 -1 -22 -21 -20 -73 4 -136 11 -29 20 -56 20 -59
0 -3 -24 -2 -52 2 -261 42 -359 26 -303 -47 24 -31 19 -81 -10 -100 -32 -21
-117 -15 -145 11 -26 24 -26 69 1 106 44 62 -9 89 -174 89 l-114 0 -13 44 c-7
24 -21 58 -31 75 -17 29 -22 31 -58 25 -34 -5 -43 -3 -66 20 -21 22 -26 34
-23 69 2 35 8 44 31 55 25 12 35 12 75 -3 45 -18 46 -18 64 5 27 33 22 80 -22
207 -45 129 -47 148 -24 182 14 19 22 22 48 16 71 -15 99 -11 114 15 18 35 10
124 -15 158 -26 35 -68 40 -98 12 -23 -22 -23 -22 -34 -2 -14 26 -13 96 3 147
l11 40 95 17 c213 37 299 16 240 -59 -11 -14 -20 -41 -20 -59 0 -69 88 -82
153 -24 l31 27 -14 58 c-13 54 -13 58 5 71 24 18 56 17 180 -1z m1502 -461
c23 -23 25 -31 20 -81 -9 -88 23 -106 210 -119 l101 -6 7 -37 c9 -56 36 -131
45 -131 5 0 26 11 46 25 43 29 52 30 82 9 14 -10 22 -25 22 -45 0 -87 -94
-155 -134 -98 -18 27 -43 19 -56 -17 -10 -26 -1 -112 20 -184 22 -75 27 -73
-137 -68 -200 6 -228 20 -182 94 42 69 3 124 -95 132 -48 4 -57 1 -80 -21 -33
-34 -33 -54 4 -108 25 -37 27 -46 16 -58 -21 -20 -88 -30 -204 -31 l-103 0 6
53 c9 67 -9 166 -34 191 -19 18 -20 18 -75 -5 l-57 -23 -20 21 c-30 29 -35 98
-12 143 24 46 64 61 105 37 40 -23 43 -22 62 17 13 29 14 43 6 82 -6 26 -9 48
-8 49 2 1 57 7 123 13 119 12 176 23 205 42 13 8 13 13 -3 39 -36 61 -11 111
55 111 29 0 46 -7 65 -26z m3437 16 c42 -16 52 -51 31 -106 -21 -55 -12 -70
51 -84 72 -17 338 -32 442 -26 128 8 151 13 182 36 23 17 23 20 11 58 -8 22
-11 52 -7 66 11 45 90 71 137 45 17 -8 19 -20 18 -71 -2 -49 1 -64 16 -75 36
-25 90 -33 239 -33 l148 0 -7 -47 c-17 -122 -38 -156 -77 -129 -12 9 -37 16
-55 16 -45 0 -68 -35 -60 -92 10 -77 64 -117 118 -88 32 18 48 -5 61 -84 13
-77 0 -207 -26 -270 l-15 -36 -25 25 c-32 32 -60 32 -91 0 -34 -33 -35 -110
-3 -150 19 -24 26 -27 66 -22 56 6 75 -11 97 -88 28 -94 24 -98 -80 -112 -115
-15 -261 -16 -286 -2 -17 9 -19 17 -14 53 9 55 -6 83 -52 103 -66 27 -143 -6
-143 -63 0 -15 12 -38 30 -56 17 -16 30 -33 30 -37 0 -29 -218 -56 -357 -44
l-73 6 0 36 c1 69 37 202 59 215 6 4 24 -8 40 -26 26 -29 31 -31 54 -21 52 24
83 134 53 191 -14 27 -22 32 -52 32 -19 0 -46 -7 -60 -16 -33 -22 -42 -12 -64
68 l-17 63 -114 11 c-122 13 -194 28 -204 45 -4 5 5 21 19 34 27 25 30 33 20
60 -20 51 -177 69 -206 23 -14 -23 -8 -75 12 -101 11 -14 20 -27 20 -30 0 -3
-19 -13 -42 -22 -28 -11 -84 -19 -160 -22 l-118 -6 0 54 c0 76 -17 167 -35
196 l-16 24 -26 -21 c-57 -45 -103 -12 -103 75 0 68 29 115 70 115 20 0 34 -8
46 -25 9 -14 20 -25 24 -25 14 0 30 63 38 146 5 48 12 78 19 77 90 -17 250
-34 276 -29 55 10 66 31 39 77 -29 50 -28 73 4 98 29 23 77 27 118 11z m2522
-6 c44 -21 58 -47 51 -94 -4 -31 -1 -40 17 -49 29 -15 108 -29 215 -37 l91 -7
-7 -36 c-12 -57 -7 -91 15 -113 l20 -21 28 22 c35 28 65 27 94 -4 27 -29 38
-113 21 -158 -10 -27 -14 -29 -54 -24 -23 3 -54 8 -69 12 -23 6 -29 3 -43 -25
-9 -18 -19 -58 -22 -89 -7 -83 -2 -79 -90 -65 -112 18 -167 17 -193 -4 -18
-15 -20 -21 -10 -46 6 -16 8 -37 5 -47 -14 -44 -118 -65 -163 -33 -30 21 -29
65 3 103 l26 30 -23 15 c-30 20 -139 36 -245 36 l-81 0 9 34 c10 37 1 74 -25
95 -12 10 -19 10 -38 -3 -62 -44 -118 4 -118 102 0 86 55 120 105 66 l25 -27
15 37 c9 20 21 59 27 86 l11 50 106 0 c117 1 176 10 199 34 14 14 14 19 -1 51
-46 96 6 153 99 109z m-3857 -164 c15 -72 14 -132 -5 -158 -12 -18 -25 -22
-65 -22 -80 0 -110 -50 -74 -120 21 -40 46 -52 96 -44 34 6 45 4 56 -11 27
-39 8 -165 -25 -165 -10 0 -62 7 -117 15 -127 19 -196 19 -220 1 -19 -14 -19
-15 -2 -50 26 -56 22 -83 -15 -106 -82 -50 -183 0 -133 66 23 30 18 44 -22 61
-31 13 -61 14 -168 9 -71 -4 -140 -9 -152 -13 l-23 -5 25 66 c30 81 31 107 5
131 -19 17 -26 18 -79 7 -32 -7 -66 -10 -74 -6 -17 6 -47 73 -47 105 0 11 7
33 15 49 22 42 71 42 120 -1 28 -25 38 -29 50 -19 22 18 36 72 39 152 l2 73
40 6 c92 16 210 20 238 10 26 -10 27 -13 14 -29 -55 -64 -6 -125 98 -125 82 0
122 56 77 105 -39 43 35 65 224 67 l111 1 11 -50z m-1234 -419 c39 -22 47 -72
14 -94 -12 -9 -19 -22 -16 -30 8 -21 60 -26 182 -16 61 4 124 8 142 8 l31 1
-19 -50 c-25 -66 -24 -103 4 -135 l22 -25 52 20 c38 14 59 17 76 11 42 -16 50
-75 17 -128 -23 -38 -60 -44 -110 -18 -28 14 -31 14 -50 -5 -24 -24 -26 -81
-6 -158 7 -29 10 -52 7 -52 -3 0 -49 -7 -101 -15 -126 -19 -210 -19 -238 1
l-22 15 21 28 c26 36 19 65 -24 92 -40 24 -119 26 -141 3 -27 -26 -20 -69 16
-99 24 -21 28 -29 18 -35 -20 -12 -123 -30 -217 -37 l-83 -6 0 55 c0 67 -23
149 -50 173 -14 12 -27 16 -47 11 -73 -19 -88 -18 -108 4 -30 33 -28 115 4
141 28 23 59 24 88 4 20 -14 23 -13 42 11 16 20 21 41 21 84 l0 57 95 6 c131
9 221 26 247 47 l22 18 -32 36 c-37 42 -37 44 -17 73 25 36 100 38 160 4z
m5155 -546 c27 -24 25 -60 -5 -99 -31 -40 -31 -51 -3 -70 28 -20 73 -19 221 3
l119 18 8 -22 c22 -57 31 -140 20 -170 l-11 -29 -25 32 c-44 55 -101 41 -129
-33 -20 -51 -15 -107 11 -136 22 -24 40 -24 99 2 l47 21 21 -21 c24 -24 34
-114 22 -206 l-6 -55 -82 0 c-102 0 -248 16 -281 31 -32 15 -37 29 -25 73 11
39 4 59 -29 89 -26 24 -97 34 -117 17 -19 -16 -19 -79 0 -107 15 -21 14 -23
-10 -39 -23 -15 -45 -16 -178 -11 -84 4 -162 9 -174 13 -16 4 -25 21 -37 69
-20 82 -20 98 2 125 17 21 21 22 56 10 49 -16 82 -6 101 30 35 67 9 130 -54
130 -20 0 -42 -5 -48 -11 -15 -15 -49 62 -60 139 -11 73 -20 70 127 47 139
-21 211 -20 244 6 25 20 26 24 20 83 -6 59 -5 64 17 80 30 22 111 17 139 -9z
m-2560 -10 c25 -23 25 -25 -4 -68 -23 -33 -23 -36 -8 -51 28 -24 66 -35 173
-46 56 -5 104 -12 106 -14 3 -2 8 -28 12 -58 11 -75 27 -108 50 -108 11 0 23
5 26 10 3 6 24 10 45 10 29 0 43 -6 54 -22 23 -32 20 -94 -4 -118 -24 -24 -48
-25 -79 -3 -23 16 -25 15 -42 -6 -19 -23 -37 -98 -42 -165 l-2 -40 114 -17
c174 -27 262 -32 290 -17 35 19 35 31 1 50 -45 26 -40 77 11 103 36 19 63 19
99 0 37 -19 46 -48 29 -98 -13 -38 -12 -40 16 -64 26 -23 34 -25 89 -18 34 3
117 17 186 31 69 13 126 24 128 24 10 0 -1 -147 -14 -179 -19 -48 -31 -53 -82
-36 -91 32 -145 -35 -111 -134 19 -55 74 -68 113 -26 17 18 25 22 34 13 14
-14 16 -96 3 -116 -5 -9 -51 -16 -142 -22 -201 -14 -229 -27 -196 -95 23 -49
22 -59 -12 -88 -36 -30 -89 -41 -126 -27 -25 9 -27 14 -22 53 2 23 10 57 18
75 13 31 12 35 -5 48 -27 20 -109 18 -251 -6 -193 -32 -175 -24 -175 -83 0
-63 23 -155 44 -176 14 -13 20 -13 55 7 48 27 61 27 95 1 34 -27 37 -91 4
-126 -27 -28 -41 -29 -85 -2 -66 41 -90 -1 -73 -129 6 -45 13 -89 16 -97 5
-13 -13 -15 -119 -15 -191 0 -280 26 -222 64 44 29 27 84 -32 107 -39 15 -78
10 -107 -12 -32 -25 -34 -59 -6 -105 21 -33 21 -33 1 -43 -30 -17 -133 -13
-266 9 -186 31 -168 20 -163 98 4 73 24 125 49 130 9 2 30 -9 47 -23 62 -52
117 -20 117 70 0 38 -5 59 -19 74 -21 23 -65 28 -97 10 -17 -9 -22 -5 -36 28
-15 36 -15 46 6 168 26 161 26 168 -2 201 -23 26 -24 26 -56 10 -67 -35 -101
-3 -101 94 0 68 19 100 60 100 21 0 36 -9 51 -30 29 -38 43 -27 65 47 22 77
16 282 -10 336 -21 43 -31 45 -62 16 -44 -41 -96 0 -110 88 -14 92 60 120 134
50 23 -21 24 -21 37 -3 16 21 45 140 45 182 0 26 0 27 53 19 151 -21 180 -23
213 -13 46 12 52 31 20 69 -41 48 -34 85 19 114 39 21 127 15 155 -10z m-2224
-657 c-39 -135 -41 -183 -12 -223 13 -18 16 -19 33 -4 35 31 61 32 89 4 23
-23 26 -32 22 -76 -7 -68 -35 -104 -79 -103 -19 1 -44 5 -56 9 -17 6 -24 1
-37 -23 -8 -16 -18 -48 -22 -69 l-6 -40 -112 -6 c-121 -7 -184 -21 -192 -42
-3 -7 4 -27 16 -44 29 -38 21 -75 -23 -101 -83 -51 -164 13 -112 87 15 21 14
23 -11 40 -29 19 -143 42 -210 43 -23 0 -61 3 -85 6 l-44 6 3 52 c3 40 -1 57
-16 75 l-19 24 -31 -23 c-27 -20 -35 -22 -57 -12 -46 21 -68 106 -44 169 12
33 26 43 61 43 17 0 34 -9 47 -27 21 -27 21 -28 36 -8 21 26 37 87 44 165 l6
65 75 12 c103 16 202 16 224 0 17 -13 17 -15 2 -45 -21 -41 -20 -75 3 -103 15
-19 28 -24 65 -23 80 2 121 64 80 123 -15 21 -15 24 -1 39 22 22 80 29 236 31
l133 1 -6 -22z"/>
<path d="M9470 10191 c0 -6 5 -22 12 -36 14 -31 50 -42 86 -25 l27 12 -29 15
c-56 29 -96 43 -96 34z"/>
<path d="M7371 390 c17 -33 35 -60 39 -60 9 0 20 36 20 67 0 26 -35 53 -68 53
l-23 0 32 -60z"/>
</g>
</svg>
